# xmcd
#
# Track frame offsets:
#	150
#	15414
#	30326
#	44586
#	55394
#	68936
#	81918
#	96076
#	109218
#	127516
#
# Disc length: 1902 seconds
# Revision: 0
# Processed by: cddbd v1.5.2PL0 Copyright (c) Steve Scherf et al.
# Submitted via: dBpowerAMP V12.0
#
DISCID=78076c0a
DTITLE=The Earl Scruggs Revue - Bold and New [Columbia] (L)
DYEAR=1978
DGENRE=Country
TTITLE0=The Cabin
TTITLE1=Our Love Is Home Grown
TTITLE2=Two Lovers'll Get You Down
TTITLE3=Sea Of Love
TTITLE4=That's Alright Mama
TTITLE5=Found Myself A New Love
TTITLE6=Take The Time To Fall
TTITLE7=Someone Like You
TTITLE8=Games People Play
TTITLE9=Louisiana Lady
EXTD=
EXTT0=
EXTT1=
EXTT2=
EXTT3=
EXTT4=
EXTT5=
EXTT6=
EXTT7=
EXTT8=
EXTT9=
PLAYORDER=
